<?xml version="1.0" standalone="no"?>
<!DOCTYPE svg PUBLIC "-//W3C//DTD SVG 20010904//EN"
 "http://www.w3.org/TR/2001/REC-SVG-20010904/DTD/svg10.dtd">
<svg version="1.0" xmlns="http://www.w3.org/2000/svg"
 width="700.000000pt" height="700.000000pt" viewBox="0 0 700.000000 700.000000"
 preserveAspectRatio="xMidYMid meet">
<metadata>
Created by potrace 1.11, written by Peter Selinger 2001-2013
</metadata>
<g transform="translate(0.000000,700.000000) scale(0.100000,-0.100000)"
fill="#000000" stroke="none">
<path d="M2498 6995 c-2 -1 -82 -5 -178 -9 -96 -4 -191 -8 -210 -11 -19 -2
-75 -6 -125 -10 -49 -3 -121 -10 -160 -15 -38 -6 -88 -13 -110 -16 -184 -24
-424 -93 -565 -163 -425 -208 -800 -608 -970 -1036 -28 -71 -84 -266 -94 -330
-2 -16 -11 -73 -20 -125 -53 -333 -61 -558 -61 -1780 0 -1242 8 -1441 67
-1810 36 -230 117 -492 180 -582 10 -14 18 -30 18 -35 0 -14 132 -211 189
-283 59 -73 208 -227 271 -280 23 -19 47 -39 54 -45 92 -81 285 -200 416 -258
86 -38 278 -99 350 -112 110 -19 275 -44 325 -49 33 -3 80 -8 105 -11 228 -25
503 -30 1530 -30 873 0 1229 5 1400 20 144 13 283 27 298 30 10 1 39 6 66 9
27 4 52 9 55 10 3 2 29 7 56 10 64 9 180 38 280 72 443 147 884 542 1103 989
72 147 138 373 166 570 21 144 26 191 32 270 3 50 8 106 10 125 13 131 19 565
19 1420 0 985 -6 1289 -31 1505 -3 28 -7 70 -10 95 -11 114 -42 293 -70 405
-133 528 -571 1033 -1098 1265 -118 52 -351 115 -501 135 -133 18 -305 35
-400 41 -60 3 -137 8 -170 11 -62 5 -2211 13 -2217 8z"/>
</g>
</svg>
