<svg width="500" height="500" viewBox="0 0 500 500" fill="none" xmlns="http://www.w3.org/2000/svg">
<path d="M0 250C0 156.538 0 109.808 20.0962 75C33.2614 52.1971 52.1971 33.2614 75 20.0962C109.808 0 156.538 0 250 0C343.462 0 390.192 0 425 20.0962C447.803 33.2614 466.739 52.1971 479.904 75C500 109.808 500 156.538 500 250C500 343.462 500 390.192 479.904 425C466.739 447.803 447.803 466.739 425 479.904C390.192 500 343.462 500 250 500C156.538 500 109.808 500 75 479.904C52.1971 466.739 33.2614 447.803 20.0962 425C0 390.192 0 343.462 0 250Z" fill="url(#paint0_linear)"/>
<path d="M252 229.2H375.2V277.6C368.267 311.733 353.867 337.733 332 355.6C310.133 373.2 282.933 382 250.4 382C232.8 382 216.267 378.933 200.8 372.8C185.333 366.667 171.867 358 160.4 346.8C149.2 335.333 140.267 321.467 133.6 305.2C127.2 288.667 124 270.267 124 250C124 229.467 127.067 211.067 133.2 194.8C139.6 178.267 148.4 164.4 159.6 153.2C170.8 141.733 184.267 133.067 200 127.2C215.733 121.067 232.8 118 251.2 118C264.533 118 277.467 119.733 290 123.2C302.8 126.4 314.4 131.733 324.8 139.2C335.467 146.4 344.8 155.867 352.8 167.6C361.067 179.067 367.467 192.933 372 209.2H306.4C302.667 198.533 295.867 190 286 183.6C276.4 177.2 264.8 174 251.2 174C231.467 174 215.6 181.067 203.6 195.2C191.867 209.333 186 227.6 186 250C186 274.8 192.4 293.733 205.2 306.8C218.267 319.6 235.067 326 255.6 326C271.6 326 284.533 322.4 294.4 315.2C304.267 307.733 310.8 295.733 314 279.2H252V229.2Z" fill="url(#paint1_linear)"/>
<defs>
<linearGradient id="paint0_linear" x1="0" y1="250" x2="500" y2="250" gradientUnits="userSpaceOnUse">
<stop stop-color="#3C3B3F"/>
<stop offset="1" stop-color="#605C3C"/>
</linearGradient>
<linearGradient id="paint1_linear" x1="124" y1="250" x2="375.2" y2="250" gradientUnits="userSpaceOnUse">
<stop stop-color="#D3CCE3"/>
<stop offset="1" stop-color="#E9E4F0"/>
</linearGradient>
</defs>
</svg>
