<?xml version="1.0" standalone="no"?>
<!DOCTYPE svg PUBLIC "-//W3C//DTD SVG 20010904//EN"
 "http://www.w3.org/TR/2001/REC-SVG-20010904/DTD/svg10.dtd">
<svg version="1.0" xmlns="http://www.w3.org/2000/svg"
 width="234.000000pt" height="234.000000pt" viewBox="0 0 234.000000 234.000000"
 preserveAspectRatio="xMidYMid meet">
<metadata>
Created by potrace 1.11, written by Peter Selinger 2001-2013
</metadata>
<g transform="translate(0.000000,234.000000) scale(0.100000,-0.100000)"
fill="#000000" stroke="none">
<path d="M980 2167 c-3 -2 -32 -7 -65 -10 -247 -23 -501 -142 -661 -309 -163
-169 -243 -359 -248 -587 -4 -159 23 -284 89 -415 135 -264 389 -434 755 -502
75 -14 414 -13 490 2 198 37 370 115 478 217 l32 31 0 -112 0 -112 160 0 160
0 0 65 c1 36 1 169 1 295 0 127 0 297 -1 379 l0 148 -455 0 -455 0 0 -88 0
-89 295 0 295 0 -6 -37 c-21 -150 -128 -303 -266 -381 -58 -33 -179 -79 -233
-87 -16 -3 -43 -8 -60 -11 -50 -11 -249 -12 -311 -2 -136 20 -220 51 -323 116
-122 77 -229 231 -257 372 -3 14 -9 43 -14 65 -14 60 -5 251 14 323 109 406
520 600 984 466 140 -41 251 -110 365 -228 l59 -61 164 0 164 0 0 252 0 253
-165 0 -165 0 -1 -32 c0 -18 0 -57 1 -87 2 -58 2 -58 -55 -16 -107 77 -280
147 -420 170 -52 8 -338 18 -345 12z"/>
<path d="M2232 1790 c1 -143 -2 -263 -6 -267 -4 -4 -82 -8 -174 -8 l-167 0 0
-25 0 -25 185 -2 c102 -1 193 1 203 3 16 5 17 28 17 295 l0 289 -29 0 -29 0 0
-260z"/>
<path d="M950 1833 c-119 -23 -230 -80 -309 -160 -111 -114 -160 -230 -166
-398 -11 -274 120 -475 375 -573 30 -11 71 -23 90 -27 28 -5 19 2 -40 32 -159
81 -257 170 -313 286 -42 87 -57 152 -57 256 0 198 90 365 248 460 100 59 181
79 327 79 201 1 348 -39 485 -132 l45 -30 -25 30 c-56 69 -180 142 -275 163
-131 29 -276 34 -385 14z"/>
<path d="M2278 1183 c0 -5 -2 -206 -4 -448 -1 -242 -3 -446 -3 -452 -1 -9 -45
-13 -168 -15 -164 -3 -166 -3 -168 -26 l-2 -22 199 0 198 0 0 485 0 485 -25 0
c-14 0 -26 -3 -27 -7z"/>
<path d="M1344 981 c-2 -2 -4 -15 -4 -28 l0 -23 209 0 c207 0 209 0 214 22 4
12 4 24 1 27 -6 6 -414 8 -420 2z"/>
<path d="M405 394 c96 -87 202 -142 346 -178 202 -52 486 -53 699 -5 25 6 52
12 60 14 39 8 122 41 186 72 65 32 71 38 72 67 l1 33 -92 -46 c-85 -43 -169
-75 -225 -86 -13 -2 -31 -6 -40 -9 -92 -27 -494 -29 -617 -2 -139 30 -236 66
-350 131 l-80 45 40 -36z"/>
</g>
</svg>
